<?xml version="1.0" encoding="UTF-8" standalone="no"?>
<!-- Created with Inkscape (http://www.inkscape.org/) -->

<svg
   xmlns:dc="http://purl.org/dc/elements/1.1/"
   xmlns:cc="http://creativecommons.org/ns#"
   xmlns:rdf="http://www.w3.org/1999/02/22-rdf-syntax-ns#"
   xmlns:svg="http://www.w3.org/2000/svg"
   xmlns="http://www.w3.org/2000/svg"
   xmlns:sodipodi="http://sodipodi.sourceforge.net/DTD/sodipodi-0.dtd"
   xmlns:inkscape="http://www.inkscape.org/namespaces/inkscape"
   width="24"
   height="24"
   id="svg5465"
   version="1.1"
   inkscape:version="0.48.4 r9939"
   sodipodi:docname="interface.svg"
   inkscape:export-filename="/home/nathaniel/Desktop/icons/interface.png"
   inkscape:export-xdpi="240.02"
   inkscape:export-ydpi="240.02">
  <defs
     id="defs5467" />
  <sodipodi:namedview
     id="base"
     pagecolor="#ffffff"
     bordercolor="#666666"
     borderopacity="1.0"
     inkscape:pageopacity="0.0"
     inkscape:pageshadow="2"
     inkscape:zoom="22.627416"
     inkscape:cx="15.797246"
     inkscape:cy="12.957334"
     inkscape:document-units="px"
     inkscape:current-layer="layer1"
     showgrid="false"
     inkscape:window-width="1920"
     inkscape:window-height="1043"
     inkscape:window-x="1920"
     inkscape:window-y="0"
     inkscape:window-maximized="1" />
  <metadata
     id="metadata5470">
    <rdf:RDF>
      <cc:Work
         rdf:about="">
        <dc:format>image/svg+xml</dc:format>
        <dc:type
           rdf:resource="http://purl.org/dc/dcmitype/StillImage" />
        <dc:title />
      </cc:Work>
    </rdf:RDF>
  </metadata>
  <g
     inkscape:label="Layer 1"
     inkscape:groupmode="layer"
     id="layer1"
     transform="translate(0,-1028.3622)">
    <path
       inkscape:connector-curvature="0"
       style="color:#000000;fill:#282828;fill-opacity:1;fill-rule:nonzero;stroke:none;stroke-width:1.66600001000000009;marker:none;visibility:visible;display:inline;overflow:visible;enable-background:accumulate"
       d="m 8,1032.3622 c -4.418278,0 -8,3.5817 -8,8 0,4.4183 3.581722,8 8,8 4.418278,0 8,-3.5817 8,-8 0,-4.4183 -3.581722,-8 -8,-8 z m 0,2 c 3.313709,0 6,2.6863 6,6 0,3.3137 -2.686291,6 -6,6 -3.3137085,0 -6,-2.6863 -6,-6 0,-3.3137 2.6862915,-6 6,-6 z"
       id="path5473" />
    <path
       sodipodi:type="arc"
       style="color:#000000;fill:#606060;fill-opacity:1;fill-rule:nonzero;stroke:none;stroke-width:1.66600001000000009;marker:none;visibility:visible;display:inline;overflow:visible;enable-background:accumulate"
       id="path5479"
       sodipodi:cx="5.9220195"
       sodipodi:cy="14.454059"
       sodipodi:rx="6.7617087"
       sodipodi:ry="6.7617087"
       d="m 12.683728,14.454059 c 0,3.734388 -3.0273199,6.761708 -6.7617085,6.761708 -3.7343886,0 -6.76170875,-3.02732 -6.76170875,-6.761708 0,-3.734389 3.02732015,-6.7617091 6.76170875,-6.7617091 3.7343886,0 6.7617085,3.0273201 6.7617085,6.7617091 z"
       transform="matrix(0.59156645,0,0,0.59156645,4.496732,1031.8117)" />
    <path
       style="fill:none;stroke:#282828;stroke-width:2;stroke-linecap:round;stroke-linejoin:miter;stroke-miterlimit:4;stroke-opacity:1;stroke-dasharray:none"
       d="m 16.005486,1040.3622 6.994514,0"
       id="path6007"
       inkscape:connector-curvature="0" />
  </g>
</svg>
