<?xml version="1.0" encoding="UTF-8" standalone="no"?>
<!-- Created with Inkscape (http://www.inkscape.org/) -->

<svg
   xmlns:dc="http://purl.org/dc/elements/1.1/"
   xmlns:cc="http://creativecommons.org/ns#"
   xmlns:rdf="http://www.w3.org/1999/02/22-rdf-syntax-ns#"
   xmlns:svg="http://www.w3.org/2000/svg"
   xmlns="http://www.w3.org/2000/svg"
   xmlns:sodipodi="http://sodipodi.sourceforge.net/DTD/sodipodi-0.dtd"
   xmlns:inkscape="http://www.inkscape.org/namespaces/inkscape"
   width="24"
   height="24"
   id="svg19659"
   version="1.1"
   inkscape:version="0.48.4 r9939"
   sodipodi:docname="register.svg"
   inkscape:export-filename="/home/nathaniel/Desktop/icons/register.png"
   inkscape:export-xdpi="240"
   inkscape:export-ydpi="240">
  <sodipodi:namedview
     id="base"
     pagecolor="#ffffff"
     bordercolor="#666666"
     borderopacity="1.0"
     inkscape:pageopacity="0.0"
     inkscape:pageshadow="2"
     inkscape:zoom="22.627417"
     inkscape:cx="17.372159"
     inkscape:cy="13.34511"
     inkscape:document-units="px"
     inkscape:current-layer="layer1"
     showgrid="false"
     inkscape:window-width="1920"
     inkscape:window-height="1043"
     inkscape:window-x="1920"
     inkscape:window-y="0"
     inkscape:window-maximized="1" />
  <defs
     id="defs19661">
    <marker
       inkscape:stockid="Arrow2Send"
       orient="auto"
       refY="0.0"
       refX="0.0"
       id="Arrow2Send"
       style="overflow:visible;">
      <path
         id="path6595"
         style="fill-rule:evenodd;stroke-width:0.62500000;stroke-linejoin:round;"
         d="M 8.7185878,4.0337352 L -2.2072895,0.016013256 L 8.7185884,-4.0017078 C 6.9730900,-1.6296469 6.9831476,1.6157441 8.7185878,4.0337352 z "
         transform="scale(0.3) rotate(180) translate(-2.3,0)" />
    </marker>
    <marker
       inkscape:stockid="Arrow2SendI"
       orient="auto"
       refY="0.0"
       refX="0.0"
       id="Arrow2SendI"
       style="overflow:visible;">
      <path
         id="path20474"
         style="stroke-linejoin:round;stroke:#606060;stroke-width:0.62500000;fill:#606060;fill-rule:evenodd"
         d="M 8.7185878,4.0337352 L -2.2072895,0.016013256 L 8.7185884,-4.0017078 C 6.9730900,-1.6296469 6.9831476,1.6157441 8.7185878,4.0337352 z "
         transform="scale(0.3) rotate(180) translate(-2.3,0)" />
    </marker>
    <marker
       inkscape:stockid="Arrow2Sendf"
       orient="auto"
       refY="0.0"
       refX="0.0"
       id="Arrow2Sendf"
       style="overflow:visible;">
      <path
         id="path20524"
         style="stroke-linejoin:round;stroke:#606060;stroke-width:0.62500000;fill:#606060;fill-rule:evenodd"
         d="M 8.7185878,4.0337352 L -2.2072895,0.016013256 L 8.7185884,-4.0017078 C 6.9730900,-1.6296469 6.9831476,1.6157441 8.7185878,4.0337352 z "
         transform="scale(0.3) rotate(180) translate(-2.3,0)" />
    </marker>
  </defs>
  <metadata
     id="metadata19664">
    <rdf:RDF>
      <cc:Work
         rdf:about="">
        <dc:format>image/svg+xml</dc:format>
        <dc:type
           rdf:resource="http://purl.org/dc/dcmitype/StillImage" />
      </cc:Work>
    </rdf:RDF>
  </metadata>
  <g
     inkscape:label="Layer 1"
     inkscape:groupmode="layer"
     id="layer1"
     transform="translate(0,-1028.3622)">
    <path
       sodipodi:nodetypes="ccccc"
       inkscape:connector-curvature="0"
       id="path20187"
       d="m 12.001091,1041.3278 c -2.1812042,-2.6281 -6.2485096,-1.9202 -11.001091,0 l 0,10.0344 c 4.7525814,-1.92 8.8198868,-2.628 11.001091,0 z"
       style="fill:none;stroke:#282828;stroke-width:1;stroke-linecap:round;stroke-linejoin:round;stroke-miterlimit:4;stroke-opacity:1;stroke-dasharray:none" />
    <path
       style="fill:none;stroke:#282828;stroke-width:1;stroke-linecap:round;stroke-linejoin:round;stroke-miterlimit:4;stroke-opacity:1;stroke-dasharray:none"
       d="m 11.99891,1041.3278 c 2.181203,-2.6281 6.248508,-1.9202 11.00109,0 l 0,10.0344 c -4.752582,-1.92 -8.819887,-2.628 -11.00109,0 z"
       id="path20191"
       inkscape:connector-curvature="0"
       sodipodi:nodetypes="ccccc" />
    <path
       style="fill:none;stroke:#282828;stroke-width:2;stroke-linecap:round;stroke-linejoin:round;stroke-miterlimit:4;stroke-opacity:1;stroke-dasharray:none"
       d="m 12.001091,1041.3278 c -2.1812042,-2.6281 -6.2485096,-1.9202 -11.001091,0 l 0,10.0344 11.001091,0 z"
       id="path20194"
       inkscape:connector-curvature="0"
       sodipodi:nodetypes="ccccc" />
    <path
       sodipodi:nodetypes="ccccc"
       inkscape:connector-curvature="0"
       id="path20196"
       d="m 11.99891,1041.3278 c 2.181203,-2.6281 6.248508,-1.9202 11.00109,0 l 0,10.0344 -11.00109,0 z"
       style="fill:none;stroke:#282828;stroke-width:2;stroke-linecap:round;stroke-linejoin:round;stroke-miterlimit:4;stroke-opacity:1;stroke-dasharray:none" />
    <path
       style="fill:none;stroke:#000000;stroke-width:1;stroke-linecap:round;stroke-linejoin:round;stroke-miterlimit:4;stroke-opacity:1;stroke-dasharray:none"
       d="m 0.5421153,1009.868 c 5.1841206,-2.5763 9.6207417,-3.5261 12.0000007,0"
       id="path20236"
       inkscape:connector-curvature="0"
       sodipodi:nodetypes="cc" />
    <path
       style="font-size:medium;font-style:normal;font-variant:normal;font-weight:normal;font-stretch:normal;text-indent:0;text-align:start;text-decoration:none;line-height:normal;letter-spacing:normal;word-spacing:normal;text-transform:none;direction:ltr;block-progression:tb;writing-mode:lr-tb;text-anchor:start;baseline-shift:baseline;color:#000000;fill:#606060;fill-opacity:1;stroke:none;stroke-width:1;marker:none;visibility:visible;display:inline;overflow:visible;enable-background:accumulate;font-family:Sans;-inkscape-font-specification:Sans"
       d="m 7.46875,1041.6122 c -1.437927,0.083 -3.0062111,0.5394 -4.65625,1.1875 l 0,1.0937 c 1.7329647,-0.7093 3.3416271,-1.2017 4.71875,-1.2812 0.9843488,-0.057 1.8383952,0.066 2.59375,0.4062 l 0,-1.0312 c -0.8205428,-0.2903 -1.7158418,-0.4294 -2.65625,-0.375 z"
       id="path20187-6"
       inkscape:connector-curvature="0" />
    <path
       inkscape:connector-curvature="0"
       id="path20245"
       d="m 7.46875,1043.4664 c -1.437927,0.083 -3.0062111,0.5394 -4.65625,1.1875 l 0,1.0937 c 1.7329647,-0.7093 3.3416271,-1.2017 4.71875,-1.2812 0.9843488,-0.057 1.8383952,0.066 2.59375,0.4062 l 0,-1.0312 c -0.8205428,-0.2903 -1.7158418,-0.4294 -2.65625,-0.375 z"
       style="font-size:medium;font-style:normal;font-variant:normal;font-weight:normal;font-stretch:normal;text-indent:0;text-align:start;text-decoration:none;line-height:normal;letter-spacing:normal;word-spacing:normal;text-transform:none;direction:ltr;block-progression:tb;writing-mode:lr-tb;text-anchor:start;baseline-shift:baseline;color:#000000;fill:#606060;fill-opacity:1;stroke:none;stroke-width:1;marker:none;visibility:visible;display:inline;overflow:visible;enable-background:accumulate;font-family:Sans;-inkscape-font-specification:Sans" />
    <path
       style="font-size:medium;font-style:normal;font-variant:normal;font-weight:normal;font-stretch:normal;text-indent:0;text-align:start;text-decoration:none;line-height:normal;letter-spacing:normal;word-spacing:normal;text-transform:none;direction:ltr;block-progression:tb;writing-mode:lr-tb;text-anchor:start;baseline-shift:baseline;color:#000000;fill:#606060;fill-opacity:1;stroke:none;stroke-width:1;marker:none;visibility:visible;display:inline;overflow:visible;enable-background:accumulate;font-family:Sans;-inkscape-font-specification:Sans"
       d="m 7.46875,1045.3205 c -1.437927,0.083 -3.0062111,0.5394 -4.65625,1.1875 l 0,1.0937 c 1.7329647,-0.7093 3.3416271,-1.2017 4.71875,-1.2812 0.9843488,-0.057 1.8383952,0.066 2.59375,0.4062 l 0,-1.0312 c -0.8205428,-0.2903 -1.7158418,-0.4294 -2.65625,-0.375 z"
       id="path20247"
       inkscape:connector-curvature="0" />
    <path
       inkscape:connector-curvature="0"
       id="path20249"
       d="m 7.46875,1047.1747 c -1.437927,0.083 -3.0062111,0.5394 -4.65625,1.1875 l 0,1.0937 c 1.7329647,-0.7093 3.3416271,-1.2017 4.71875,-1.2812 0.9843488,-0.057 1.8383952,0.066 2.59375,0.4062 l 0,-1.0312 c -0.8205428,-0.2903 -1.7158418,-0.4294 -2.65625,-0.375 z"
       style="font-size:medium;font-style:normal;font-variant:normal;font-weight:normal;font-stretch:normal;text-indent:0;text-align:start;text-decoration:none;line-height:normal;letter-spacing:normal;word-spacing:normal;text-transform:none;direction:ltr;block-progression:tb;writing-mode:lr-tb;text-anchor:start;baseline-shift:baseline;color:#000000;fill:#606060;fill-opacity:1;stroke:none;stroke-width:1;marker:none;visibility:visible;display:inline;overflow:visible;enable-background:accumulate;font-family:Sans;-inkscape-font-specification:Sans" />
    <path
       inkscape:connector-curvature="0"
       id="path20259"
       d="m 16.53125,1041.6122 c 1.437927,0.083 3.006211,0.5394 4.65625,1.1875 l 0,1.0937 c -1.732965,-0.7093 -3.341627,-1.2017 -4.71875,-1.2812 -0.984349,-0.057 -1.838395,0.066 -2.59375,0.4062 l 0,-1.0312 c 0.820543,-0.2903 1.715842,-0.4294 2.65625,-0.375 z"
       style="font-size:medium;font-style:normal;font-variant:normal;font-weight:normal;font-stretch:normal;text-indent:0;text-align:start;text-decoration:none;line-height:normal;letter-spacing:normal;word-spacing:normal;text-transform:none;direction:ltr;block-progression:tb;writing-mode:lr-tb;text-anchor:start;baseline-shift:baseline;color:#000000;fill:#606060;fill-opacity:1;stroke:none;stroke-width:1;marker:none;visibility:visible;display:inline;overflow:visible;enable-background:accumulate;font-family:Sans;-inkscape-font-specification:Sans" />
    <path
       style="font-size:medium;font-style:normal;font-variant:normal;font-weight:normal;font-stretch:normal;text-indent:0;text-align:start;text-decoration:none;line-height:normal;letter-spacing:normal;word-spacing:normal;text-transform:none;direction:ltr;block-progression:tb;writing-mode:lr-tb;text-anchor:start;baseline-shift:baseline;color:#000000;fill:#606060;fill-opacity:1;stroke:none;stroke-width:1;marker:none;visibility:visible;display:inline;overflow:visible;enable-background:accumulate;font-family:Sans;-inkscape-font-specification:Sans"
       d="m 16.53125,1043.4664 c 1.437927,0.083 3.006211,0.5394 4.65625,1.1875 l 0,1.0937 c -1.732965,-0.7093 -3.341627,-1.2017 -4.71875,-1.2812 -0.984349,-0.057 -1.838395,0.066 -2.59375,0.4062 l 0,-1.0312 c 0.820543,-0.2903 1.715842,-0.4294 2.65625,-0.375 z"
       id="path20261"
       inkscape:connector-curvature="0" />
    <path
       inkscape:connector-curvature="0"
       id="path20263"
       d="m 16.53125,1045.3205 c 1.437927,0.083 3.006211,0.5394 4.65625,1.1875 l 0,1.0937 c -1.732965,-0.7093 -3.341627,-1.2017 -4.71875,-1.2812 -0.984349,-0.057 -1.838395,0.066 -2.59375,0.4062 l 0,-1.0312 c 0.820543,-0.2903 1.715842,-0.4294 2.65625,-0.375 z"
       style="font-size:medium;font-style:normal;font-variant:normal;font-weight:normal;font-stretch:normal;text-indent:0;text-align:start;text-decoration:none;line-height:normal;letter-spacing:normal;word-spacing:normal;text-transform:none;direction:ltr;block-progression:tb;writing-mode:lr-tb;text-anchor:start;baseline-shift:baseline;color:#000000;fill:#606060;fill-opacity:1;stroke:none;stroke-width:1;marker:none;visibility:visible;display:inline;overflow:visible;enable-background:accumulate;font-family:Sans;-inkscape-font-specification:Sans" />
    <path
       style="font-size:medium;font-style:normal;font-variant:normal;font-weight:normal;font-stretch:normal;text-indent:0;text-align:start;text-decoration:none;line-height:normal;letter-spacing:normal;word-spacing:normal;text-transform:none;direction:ltr;block-progression:tb;writing-mode:lr-tb;text-anchor:start;baseline-shift:baseline;color:#000000;fill:#606060;fill-opacity:0;stroke:none;stroke-width:1;marker:none;visibility:visible;display:inline;overflow:visible;enable-background:accumulate;font-family:Sans;-inkscape-font-specification:Sans"
       d="m 16.53125,1047.1747 c 1.437927,0.083 3.006211,0.5394 4.65625,1.1875 l 0,1.0937 c -1.732965,-0.7093 -3.341627,-1.2017 -4.71875,-1.2812 -0.984349,-0.057 -1.838395,0.066 -2.59375,0.4062 l 0,-1.0312 c 0.820543,-0.2903 1.715842,-0.4294 2.65625,-0.375 z"
       id="path20265"
       inkscape:connector-curvature="0" />
    <path
       sodipodi:nodetypes="cc"
       inkscape:connector-curvature="0"
       id="path20455"
       d="m 6,1029.3622 0,6.3182"
       style="fill:none;stroke:#606060;stroke-width:1.99999988;stroke-linecap:round;stroke-linejoin:round;stroke-miterlimit:4;stroke-opacity:1;stroke-dasharray:none;marker-end:url(#Arrow2Sendf)" />
    <path
       style="fill:none;stroke:#606060;stroke-width:1.99999988;stroke-linecap:round;stroke-linejoin:round;stroke-miterlimit:4;stroke-opacity:1;stroke-dasharray:none;marker-end:url(#Arrow2Sendf)"
       d="m 18.019216,1037.5722 0,-6.3182"
       id="path20943"
       inkscape:connector-curvature="0"
       sodipodi:nodetypes="cc" />
  </g>
</svg>
