<?xml version="1.0" encoding="UTF-8" standalone="no"?>
<!-- Created with Inkscape (http://www.inkscape.org/) -->

<svg
   xmlns:dc="http://purl.org/dc/elements/1.1/"
   xmlns:cc="http://creativecommons.org/ns#"
   xmlns:rdf="http://www.w3.org/1999/02/22-rdf-syntax-ns#"
   xmlns:svg="http://www.w3.org/2000/svg"
   xmlns="http://www.w3.org/2000/svg"
   xmlns:sodipodi="http://sodipodi.sourceforge.net/DTD/sodipodi-0.dtd"
   xmlns:inkscape="http://www.inkscape.org/namespaces/inkscape"
   width="23.997667"
   height="24"
   id="svg12678"
   version="1.1"
   inkscape:version="0.48.4 r9939"
   sodipodi:docname="router.svg"
   inkscape:export-filename="/home/nathaniel/Desktop/icons/router.png"
   inkscape:export-xdpi="240.02"
   inkscape:export-ydpi="240.02">
  <sodipodi:namedview
     id="base"
     pagecolor="#ffffff"
     bordercolor="#666666"
     borderopacity="1.0"
     inkscape:pageopacity="0.0"
     inkscape:pageshadow="2"
     inkscape:zoom="31.678384"
     inkscape:cx="11.382051"
     inkscape:cy="12.302877"
     inkscape:document-units="px"
     inkscape:current-layer="g3001"
     showgrid="false"
     fit-margin-top="0"
     fit-margin-left="0"
     fit-margin-right="0"
     fit-margin-bottom="0"
     inkscape:window-width="1920"
     inkscape:window-height="1016"
     inkscape:window-x="0"
     inkscape:window-y="27"
     inkscape:window-maximized="1" />
  <defs
     id="defs12680">
    <marker
       style="overflow:visible"
       id="Arrow2Sendc"
       refX="0"
       refY="0"
       orient="auto"
       inkscape:stockid="Arrow2Sendc">
      <path
         inkscape:connector-curvature="0"
         transform="matrix(-0.3,0,0,-0.3,0.69,0)"
         d="M 8.7185878,4.0337352 -2.2072895,0.01601326 8.7185884,-4.0017078 c -1.7454984,2.3720609 -1.7354408,5.6174519 -6e-7,8.035443 z"
         style="fill:#484848;fill-rule:evenodd;stroke:#484848;stroke-width:0.625;stroke-linejoin:round"
         id="path12613" />
    </marker>
    <marker
       style="overflow:visible"
       id="Arrow2Senda"
       refX="0"
       refY="0"
       orient="auto"
       inkscape:stockid="Arrow2Senda">
      <path
         inkscape:connector-curvature="0"
         transform="matrix(-0.3,0,0,-0.3,0.69,0)"
         d="M 8.7185878,4.0337352 -2.2072895,0.01601326 8.7185884,-4.0017078 c -1.7454984,2.3720609 -1.7354408,5.6174519 -6e-7,8.035443 z"
         style="fill:#484848;fill-rule:evenodd;stroke:#484848;stroke-width:0.625;stroke-linejoin:round"
         id="path11919" />
    </marker>
    <marker
       style="overflow:visible"
       id="marker12700"
       refX="0"
       refY="0"
       orient="auto"
       inkscape:stockid="Arrow2Senda">
      <path
         inkscape:connector-curvature="0"
         transform="matrix(-0.3,0,0,-0.3,0.69,0)"
         d="M 8.7185878,4.0337352 -2.2072895,0.01601326 8.7185884,-4.0017078 c -1.7454984,2.3720609 -1.7354408,5.6174519 -6e-7,8.035443 z"
         style="fill:#484848;fill-rule:evenodd;stroke:#484848;stroke-width:0.625;stroke-linejoin:round"
         id="path12702" />
    </marker>
    <marker
       style="overflow:visible"
       id="Arrow2Senda3"
       refX="0"
       refY="0"
       orient="auto"
       inkscape:stockid="Arrow2Senda3">
      <path
         inkscape:connector-curvature="0"
         transform="matrix(-0.3,0,0,-0.3,0.69,0)"
         d="M 8.7185878,4.0337352 -2.2072895,0.01601326 8.7185884,-4.0017078 c -1.7454984,2.3720609 -1.7354408,5.6174519 -6e-7,8.035443 z"
         style="stroke-width:0.625;stroke-linejoin:round;stroke:#000000;fill-rule:evenodd;fill:#000000"
         id="path3787" />
    </marker>
    <marker
       style="overflow:visible"
       id="Arrow2Sendah"
       refX="0"
       refY="0"
       orient="auto"
       inkscape:stockid="Arrow2Sendah">
      <path
         inkscape:connector-curvature="0"
         transform="matrix(-0.3,0,0,-0.3,0.69,0)"
         d="M 8.7185878,4.0337352 -2.2072895,0.01601326 8.7185884,-4.0017078 c -1.7454984,2.3720609 -1.7354408,5.6174519 -6e-7,8.035443 z"
         style="stroke-width:0.625;stroke-linejoin:round;stroke:#808080;fill-rule:evenodd;fill:#808080"
         id="path3823" />
    </marker>
    <marker
       style="overflow:visible"
       id="Arrow2Sendco"
       refX="0"
       refY="0"
       orient="auto"
       inkscape:stockid="Arrow2Sendco">
      <path
         inkscape:connector-curvature="0"
         transform="matrix(-0.3,0,0,-0.3,0.69,0)"
         d="M 8.7185878,4.0337352 -2.2072895,0.01601326 8.7185884,-4.0017078 c -1.7454984,2.3720609 -1.7354408,5.6174519 -6e-7,8.035443 z"
         style="stroke-width:0.625;stroke-linejoin:round;stroke:#808080;fill-rule:evenodd;fill:#808080"
         id="path3862" />
    </marker>
    <marker
       style="overflow:visible"
       id="Arrow2SendahF"
       refX="0"
       refY="0"
       orient="auto"
       inkscape:stockid="Arrow2SendahF">
      <path
         inkscape:connector-curvature="0"
         transform="matrix(-0.3,0,0,-0.3,0.69,0)"
         d="M 8.7185878,4.0337352 -2.2072895,0.01601326 8.7185884,-4.0017078 c -1.7454984,2.3720609 -1.7354408,5.6174519 -6e-7,8.035443 z"
         style="stroke-linejoin:round;stroke:#606060;stroke-width:0.625;fill:#606060;fill-rule:evenodd"
         id="path3905" />
    </marker>
    <marker
       style="overflow:visible"
       id="Arrow2SendcoO"
       refX="0"
       refY="0"
       orient="auto"
       inkscape:stockid="Arrow2SendcoO">
      <path
         inkscape:connector-curvature="0"
         transform="matrix(-0.3,0,0,-0.3,0.69,0)"
         d="M 8.7185878,4.0337352 -2.2072895,0.01601326 8.7185884,-4.0017078 c -1.7454984,2.3720609 -1.7354408,5.6174519 -6e-7,8.035443 z"
         style="stroke-linejoin:round;stroke:#606060;stroke-width:0.625;fill:#606060;fill-rule:evenodd"
         id="path3952" />
    </marker>
    <marker
       style="overflow:visible"
       id="Arrow2Senda3i"
       refX="0"
       refY="0"
       orient="auto"
       inkscape:stockid="Arrow2Senda3i">
      <path
         inkscape:connector-curvature="0"
         transform="matrix(-0.3,0,0,-0.3,0.69,0)"
         d="M 8.7185878,4.0337352 -2.2072895,0.01601326 8.7185884,-4.0017078 c -1.7454984,2.3720609 -1.7354408,5.6174519 -6e-7,8.035443 z"
         style="stroke-linejoin:round;stroke:#303030;stroke-width:0.625;fill:#303030;fill-rule:evenodd"
         id="path4003" />
    </marker>
    <marker
       style="overflow:visible"
       id="Arrow2Senda3ia"
       refX="0"
       refY="0"
       orient="auto"
       inkscape:stockid="Arrow2Senda3ia">
      <path
         inkscape:connector-curvature="0"
         transform="matrix(-0.3,0,0,-0.3,0.69,0)"
         d="M 8.7185878,4.0337352 -2.2072895,0.01601326 8.7185884,-4.0017078 c -1.7454984,2.3720609 -1.7354408,5.6174519 -6e-7,8.035443 z"
         style="stroke-linejoin:round;fill-rule:evenodd;stroke:#202020;stroke-width:0.625;fill:#202020"
         id="path3848" />
    </marker>
    <marker
       style="overflow:visible"
       id="Arrow2Senda3iaZ"
       refX="0"
       refY="0"
       orient="auto"
       inkscape:stockid="Arrow2Senda3iaZ">
      <path
         inkscape:connector-curvature="0"
         transform="matrix(-0.3,0,0,-0.3,0.69,0)"
         d="M 8.7185878,4.0337352 -2.2072895,0.01601326 8.7185884,-4.0017078 c -1.7454984,2.3720609 -1.7354408,5.6174519 -6e-7,8.035443 z"
         style="stroke-linejoin:round;stroke:#282828;stroke-width:0.625;fill:#282828;fill-rule:evenodd"
         id="path3858" />
    </marker>
  </defs>
  <metadata
     id="metadata12683">
    <rdf:RDF>
      <cc:Work
         rdf:about="">
        <dc:format>image/svg+xml</dc:format>
        <dc:type
           rdf:resource="http://purl.org/dc/dcmitype/StillImage" />
        <dc:title></dc:title>
      </cc:Work>
    </rdf:RDF>
  </metadata>
  <g
     inkscape:label="Layer 1"
     inkscape:groupmode="layer"
     id="layer1"
     transform="translate(454.85714,-782.17893)">
    <g
       id="g3001"
       transform="translate(-0.0013678,0)">
      <path
         sodipodi:nodetypes="cc"
         d="m -453.70975,794.17893 19.53491,0"
         class="st32"
         id="path607"
         inkscape:connector-curvature="0"
         style="stroke-linejoin:round;font-size:12px;marker-end:url(#Arrow2SendcoO);stroke-opacity:1;stroke:#606060;stroke-linecap:round;stroke-miterlimit:3;stroke-dasharray:none;stroke-width:2.29477572000000007;fill:none" />
      <path
         style="stroke-linejoin:round;font-size:12px;marker-end:url(#Arrow2SendahF);stroke-opacity:1;stroke:#606060;stroke-linecap:round;stroke-miterlimit:3;stroke-dasharray:none;stroke-width:2.29477572000000007;fill:none"
         inkscape:connector-curvature="0"
         id="path2999"
         class="st32"
         d="m -453.70975,794.17931 c 8.19757,0 8.21495,-1.7e-4 15.73814,8.64495"
         sodipodi:nodetypes="cc" />
      <path
         sodipodi:nodetypes="cc"
         d="m -453.70975,794.17868 c 8.19757,0 8.21495,1.7e-4 15.73814,-8.64495"
         class="st32"
         id="path602"
         inkscape:connector-curvature="0"
         style="stroke-linejoin:round;font-size:12px;marker-end:url(#Arrow2Senda3iaZ);stroke-opacity:1;stroke:#282828;stroke-linecap:round;stroke-miterlimit:3;stroke-dasharray:none;stroke-width:2.29477572000000007;fill:none" />
    </g>
  </g>
</svg>
