<?xml version="1.0" encoding="UTF-8" standalone="no"?>
<!-- Created with Inkscape (http://www.inkscape.org/) -->

<svg
   xmlns:dc="http://purl.org/dc/elements/1.1/"
   xmlns:cc="http://creativecommons.org/ns#"
   xmlns:rdf="http://www.w3.org/1999/02/22-rdf-syntax-ns#"
   xmlns:svg="http://www.w3.org/2000/svg"
   xmlns="http://www.w3.org/2000/svg"
   xmlns:sodipodi="http://sodipodi.sourceforge.net/DTD/sodipodi-0.dtd"
   xmlns:inkscape="http://www.inkscape.org/namespaces/inkscape"
   width="24"
   height="24"
   id="svg20964"
   version="1.1"
   inkscape:version="0.48.4 r9939"
   sodipodi:docname="timer.svg"
   inkscape:export-filename="/home/nathaniel/Desktop/icons/timer.png"
   inkscape:export-xdpi="240"
   inkscape:export-ydpi="240">
  <defs
     id="defs20966" />
  <sodipodi:namedview
     id="base"
     pagecolor="#ffffff"
     bordercolor="#666666"
     borderopacity="1.0"
     inkscape:pageopacity="0.0"
     inkscape:pageshadow="2"
     inkscape:zoom="22.627417"
     inkscape:cx="5.2360271"
     inkscape:cy="8.9680623"
     inkscape:document-units="px"
     inkscape:current-layer="layer1"
     showgrid="false"
     inkscape:window-width="1920"
     inkscape:window-height="1043"
     inkscape:window-x="1920"
     inkscape:window-y="0"
     inkscape:window-maximized="1" />
  <metadata
     id="metadata20969">
    <rdf:RDF>
      <cc:Work
         rdf:about="">
        <dc:format>image/svg+xml</dc:format>
        <dc:type
           rdf:resource="http://purl.org/dc/dcmitype/StillImage" />
        <dc:title />
      </cc:Work>
    </rdf:RDF>
  </metadata>
  <g
     inkscape:label="Layer 1"
     inkscape:groupmode="layer"
     id="layer1"
     transform="translate(0,-1028.3622)">
    <path
       style="fill:#a0a0a0;fill-opacity:1;stroke:none"
       d="m 13,1041.8622 -2,0 c 0,-2.1036 -3.8932134,-5.3632 -5.5625,-7.7188 3.9036602,-3.23 7.47056,3.5445 13.375,0 -2.320714,2.581 -5.8125,5.5674 -5.8125,7.7188 z"
       id="path21507"
       inkscape:connector-curvature="0"
       sodipodi:nodetypes="ccccc" />
    <path
       style="fill:#a0a0a0;fill-opacity:1;stroke:none"
       d="m 11,13.3125 c -0.162166,5.791263 -1.5237793,7.51431 -3.21875,8.21875 -0.2455608,0.08947 -0.4860653,0.184477 -0.75,0.25 -0.041237,0.01103 -0.083564,0.02082 -0.125,0.03125 C 6.6138447,21.881782 6.3101283,21.93866 6,22 L 5.762772,22.673961 18.198233,22.519282 18,22 C 17.698313,21.94015 17.389964,21.887062 17.09375,21.8125 16.786593,21.73972 16.501803,21.634382 16.21875,21.53125 14.523779,20.826817 13.162166,19.103775 13,13.3125 z"
       transform="translate(0,1028.3622)"
       id="path21515"
       inkscape:connector-curvature="0"
       sodipodi:nodetypes="cccccccccccc" />
    <path
       style="fill:none;stroke:#282828;stroke-width:2;stroke-linecap:square;stroke-linejoin:miter;stroke-miterlimit:4;stroke-opacity:1;stroke-dasharray:none"
       d="m 4.4619287,1051.3622 15.0761423,0"
       id="path20972"
       inkscape:connector-curvature="0" />
    <path
       inkscape:connector-curvature="0"
       id="path21482"
       d="m 4.4619287,1029.3622 15.0761423,0"
       style="fill:none;stroke:#282828;stroke-width:2;stroke-linecap:square;stroke-linejoin:miter;stroke-miterlimit:4;stroke-opacity:1;stroke-dasharray:none" />
    <path
       sodipodi:nodetypes="cccccc"
       inkscape:connector-curvature="0"
       id="path21496"
       d="m 5,1051.3622 0,-5 5,-5 0,-2 -5,-5 0,-5"
       style="fill:none;stroke:#282828;stroke-width:2;stroke-linecap:round;stroke-linejoin:round;stroke-miterlimit:4;stroke-opacity:1;stroke-dasharray:none" />
    <path
       style="fill:none;stroke:#282828;stroke-width:2;stroke-linecap:round;stroke-linejoin:round;stroke-miterlimit:4;stroke-opacity:1;stroke-dasharray:none"
       d="m 19,1051.3622 0,-5 -5,-5 0,-2 5,-5 0,-5"
       id="path21499"
       inkscape:connector-curvature="0"
       sodipodi:nodetypes="cccccc" />
  </g>
</svg>
