<?xml version="1.0" encoding="iso-8859-1"?>
<!-- Generator: Adobe Illustrator 16.0.0, SVG Export Plug-In . SVG Version: 6.00 Build 0)  -->
<!DOCTYPE svg PUBLIC "-//W3C//DTD SVG 1.1//EN" "http://www.w3.org/Graphics/SVG/1.1/DTD/svg11.dtd">
<svg version="1.1" id="Layer_1" xmlns="http://www.w3.org/2000/svg" xmlns:xlink="http://www.w3.org/1999/xlink" x="0px" y="0px"
	 width="27.423px" height="31.868px" viewBox="0 0 27.423 31.868" style="enable-background:new 0 0 27.423 31.868;"
	 xml:space="preserve">
<g>
	<circle cx="13.706" cy="4.348" r="4.348"/>
	<path d="M18.298,16.155l-0.052-1.836h3.148l-0.715-2.423l-0.547-1.897l-2.36-0.323V8.75l-4.315,0.786L9.141,8.75v0.98L7.289,9.967
		l-1.827,3.79h0.012l-0.268,0.563h3.718v1.836H0v3.56h2.221v12.153h22.981V19.715h2.221v-3.56H18.298z M16.772,11.896h-0.628v2.423
		h0.628v0.508l-3.315,0.604l-3.315-0.604v-0.508h0.597v-2.423h-0.597V9.949l3.315,0.603l3.315-0.603V11.896z"/>
</g>
<g>
</g>
<g>
</g>
<g>
</g>
<g>
</g>
<g>
</g>
<g>
</g>
<g>
</g>
<g>
</g>
<g>
</g>
<g>
</g>
<g>
</g>
<g>
</g>
<g>
</g>
<g>
</g>
<g>
</g>
</svg>
