<?xml version="1.0" encoding="UTF-8"?>
<!-- Generator: Adobe Illustrator 15.0.2, SVG Export Plug-In . SVG Version: 6.00 Build 0)  -->
<!DOCTYPE svg PUBLIC "-//W3C//DTD SVG 1.1//EN" "http://www.w3.org/Graphics/SVG/1.1/DTD/svg11.dtd">
<svg xmlns="http://www.w3.org/2000/svg" xmlns:xlink="http://www.w3.org/1999/xlink" version="1.1" id="Layer_1" x="0px" y="0px" width="512px" height="512px" viewBox="0 0 512 512" enable-background="new 0 0 512 512" xml:space="preserve">
<g>
	<path d="M0,56.889v398.223C0,486.5,25.486,512,56.889,512h398.223C486.5,512,512,486.5,512,455.111V56.889   C512,25.486,486.5,0,455.111,0H56.889C25.486,0,0,25.486,0,56.889z M455.111,455.111H56.889V56.889h398.223V455.111z    M142.223,284.444h85.333v85.333c0,15.695,12.75,28.445,28.444,28.445s28.444-12.75,28.444-28.445v-85.333h85.333   c15.695,0,28.445-12.75,28.445-28.444s-12.75-28.444-28.445-28.444h-85.333v-85.333c0-15.695-12.75-28.445-28.444-28.445   s-28.444,12.75-28.444,28.445v85.333h-85.333c-15.695,0-28.445,12.75-28.445,28.444S126.527,284.444,142.223,284.444z" fill="#000000"/>
</g>
</svg>
