<?xml version="1.0" encoding="iso-8859-1"?>
<!-- Generator: Adobe Illustrator 16.0.0, SVG Export Plug-In . SVG Version: 6.00 Build 0)  -->
<!DOCTYPE svg PUBLIC "-//W3C//DTD SVG 1.1//EN" "http://www.w3.org/Graphics/SVG/1.1/DTD/svg11.dtd">
<svg version="1.1" id="Capa_1" xmlns="http://www.w3.org/2000/svg" xmlns:xlink="http://www.w3.org/1999/xlink" x="0px" y="0px"
	 width="31.543px" height="32.409px" viewBox="0 0 31.543 32.409" style="enable-background:new 0 0 31.543 32.409;"
	 xml:space="preserve">
<path d="M27.135,20.168V13.63c-0.021-5.043-3.48-9.862-8.654-11.088c0,0-0.17-2.542-2.711-2.542c-2.58,0-2.709,2.47-2.709,2.47
	C7.889,3.69,4.473,8.587,4.443,13.63v6.33c0,3.094-2.033,3.626-4.443,6.146h31.543C29.133,23.586,27.135,23.263,27.135,20.168z
	 M15.77,32.409c2.771,0,5.088-2.212,5.713-5.043H10.059C10.684,30.197,13.002,32.409,15.77,32.409z"/>
<g>
</g>
<g>
</g>
<g>
</g>
<g>
</g>
<g>
</g>
<g>
</g>
<g>
</g>
<g>
</g>
<g>
</g>
<g>
</g>
<g>
</g>
<g>
</g>
<g>
</g>
<g>
</g>
<g>
</g>
</svg>
