<?xml version="1.0" encoding="iso-8859-1"?>
<!-- Generator: Adobe Illustrator 17.1.0, SVG Export Plug-In . SVG Version: 6.00 Build 0)  -->
<!DOCTYPE svg PUBLIC "-//W3C//DTD SVG 1.1//EN" "http://www.w3.org/Graphics/SVG/1.1/DTD/svg11.dtd">
<svg version="1.1" id="Layer_1" xmlns="http://www.w3.org/2000/svg" xmlns:xlink="http://www.w3.org/1999/xlink" x="0px" y="0px"
	 viewBox="0 0 800 800" style="enable-background:new 0 0 800 800;" xml:space="preserve">
<path d="M401.25,429.63c118.639,0,214.815-96.176,214.815-214.815S519.889,0,401.25,0S186.435,96.176,186.435,214.815
	S282.611,429.63,401.25,429.63z M503.052,299.838c-9.772,32.311-51.633,56.599-101.802,56.599c-50.17,0-92.03-24.288-101.802-56.599
	H503.052z M764.213,651.852v70.81c0,10.495-7.727,22.692-17.315,26.959C709.737,766.156,608.376,800,401.25,800
	S92.763,766.156,55.602,749.621c-9.588-4.267-17.315-16.464-17.315-26.959v-70.81c0-106.109,80.789-194.136,183.877-205.926
	c3.132-0.359,7.777,0.982,10.331,2.831c47.531,34.41,105.722,54.947,168.755,54.947s121.225-20.537,168.755-54.947
	c2.554-1.849,7.199-3.19,10.331-2.831C683.424,457.716,764.213,545.743,764.213,651.852z"/>
</svg>
