<?xml version="1.0" encoding="UTF-8"?>
<!-- Generator: Adobe Illustrator 15.0.2, SVG Export Plug-In . SVG Version: 6.00 Build 0)  -->
<!DOCTYPE svg PUBLIC "-//W3C//DTD SVG 1.1//EN" "http://www.w3.org/Graphics/SVG/1.1/DTD/svg11.dtd">
<svg xmlns="http://www.w3.org/2000/svg" xmlns:xlink="http://www.w3.org/1999/xlink" version="1.1" id="Layer_1" x="0px" y="0px" width="511.996px" height="511.996px" viewBox="0 0 511.996 511.996" enable-background="new 0 0 511.996 511.996" xml:space="preserve">
<g>
	<path d="M338.745,338.745l-28.516-86.079L145.743,88.181l-57.562,57.562l164.485,164.486L338.745,338.745z M11.93,11.93   c-15.907,15.906-15.907,41.657,0,57.563l42.36,42.375l57.578-57.578L69.493,11.93C53.587-3.977,27.836-3.977,11.93,11.93z    M479.996,95.993H253.135l32,32h194.861v352.003H127.993V285.15l-32-32v226.846c0,17.672,14.328,32,32,32h352.003   c17.672,0,32-14.328,32-32V127.993C511.996,110.321,497.668,95.993,479.996,95.993z" fill="#000000"/>
</g>
</svg>
