<?xml version="1.0" encoding="iso-8859-1"?>
<!-- Generator: Adobe Illustrator 17.1.0, SVG Export Plug-In . SVG Version: 6.00 Build 0)  -->
<!DOCTYPE svg PUBLIC "-//W3C//DTD SVG 1.1//EN" "http://www.w3.org/Graphics/SVG/1.1/DTD/svg11.dtd">
<svg version="1.1" id="Layer_1" xmlns="http://www.w3.org/2000/svg" xmlns:xlink="http://www.w3.org/1999/xlink" x="0px" y="0px"
	 viewBox="0 0 128 128" style="enable-background:new 0 0 128 128;" xml:space="preserve">
<g>
	<path d="M63.973,0C28.682,0,0.076,28.61,0.076,63.897c0,35.287,28.606,63.897,63.897,63.897c35.287,0,63.897-28.61,63.897-63.897
		C127.871,28.61,99.26,0,63.973,0z M63.973,115.82c-28.632,0-51.923-23.291-51.923-51.923s23.291-51.923,51.923-51.923
		c28.632,0,51.923,23.291,51.923,51.923S92.605,115.82,63.973,115.82z"/>
	<path d="M39.163,66.549h18.979v28.917c0,3.677,2.991,6.669,6.668,6.669s6.669-2.992,6.669-6.669V59.88
		c0-3.677-2.992-6.669-6.669-6.669H39.163c-3.677,0-6.669,2.992-6.669,6.669S35.486,66.549,39.163,66.549z"/>
</g>
</svg>
