<?xml version="1.0" encoding="UTF-8" standalone="no"?>
<!-- Generator: Adobe Illustrator 15.0.0, SVG Export Plug-In . SVG Version: 6.00 Build 0)  -->

<svg
   xmlns:dc="http://purl.org/dc/elements/1.1/"
   xmlns:cc="http://creativecommons.org/ns#"
   xmlns:rdf="http://www.w3.org/1999/02/22-rdf-syntax-ns#"
   xmlns:svg="http://www.w3.org/2000/svg"
   xmlns="http://www.w3.org/2000/svg"
   xmlns:sodipodi="http://sodipodi.sourceforge.net/DTD/sodipodi-0.dtd"
   xmlns:inkscape="http://www.inkscape.org/namespaces/inkscape"
   version="1.1"
   id="Layer_1"
   x="0px"
   y="0px"
   width="176"
   height="55"
   viewBox="0 0 176 55"
   enable-background="new 0 0 64 64"
   xml:space="preserve"
   inkscape:version="0.48.4 r9939"
   sodipodi:docname="REALMBanner.png"><metadata
     id="metadata25"><rdf:RDF><cc:Work
         rdf:about=""><dc:format>image/svg+xml</dc:format><dc:type
           rdf:resource="http://purl.org/dc/dcmitype/StillImage" /><dc:title></dc:title></cc:Work></rdf:RDF></metadata><defs
     id="defs23" /><sodipodi:namedview
     pagecolor="#ffffff"
     bordercolor="#666666"
     borderopacity="1"
     objecttolerance="10"
     gridtolerance="10"
     guidetolerance="10"
     inkscape:pageopacity="0"
     inkscape:pageshadow="2"
     inkscape:window-width="1920"
     inkscape:window-height="1058"
     id="namedview21"
     showgrid="false"
     inkscape:zoom="29.5"
     inkscape:cx="60.527197"
     inkscape:cy="29.895347"
     inkscape:window-x="1912"
     inkscape:window-y="-8"
     inkscape:window-maximized="1"
     inkscape:current-layer="Layer_1" /><g
     id="g3"
     transform="matrix(0.42540783,0,0,0.48281487,9.4187477,8.599984)"><g
       id="g5"><path
         d="m 20.378,34.999 c 0,0 -0.05,2.061 -2.51,4.513 -2.46,2.454 -4.833,2.577 -4.833,2.577 L 23.17,52.226 h -0.841 v 9.176 H 43.954 V 52.226 H 37.608 L 20.378,34.999 z m 21.867,24.69 H 24.04 v -5.751 h 18.206 v 5.751 z"
         id="path7"
         inkscape:connector-curvature="0"
         style="opacity:0.5" /></g><g
       id="g9"><circle
         cx="11.572"
         cy="32.432999"
         r="3.2839999"
         id="circle11"
         d="m 14.855999,32.432999 c 0,1.813703 -1.470296,3.284 -3.283999,3.284 -1.8137035,0 -3.2840004,-1.470297 -3.2840004,-3.284 0,-1.813703 1.4702969,-3.284 3.2840004,-3.284 1.813703,0 3.283999,1.470297 3.283999,3.284 z"
         sodipodi:cx="11.572"
         sodipodi:cy="32.432999"
         sodipodi:rx="3.2839999"
         sodipodi:ry="3.2839999"
         style="opacity:0.5" /></g><g
       id="g13"><path
         d="m 19.856,32.433 c 0,-0.285 -0.014,-0.566 -0.042,-0.844 -0.432,-4.243 -3.974,-7.44 -8.243,-7.44 -4.569,0 -8.284,3.715 -8.284,8.284 0,4.567 3.715,8.283 8.284,8.283 4.571,0 8.285,-3.716 8.285,-8.283 z m -8.284,6.214 c -3.426,0 -6.213,-2.787 -6.213,-6.215 0,-3.428 2.787,-6.215 6.213,-6.215 3.428,0 6.215,2.787 6.215,6.215 0,3.428 -2.787,6.215 -6.215,6.215 z"
         id="path15"
         inkscape:connector-curvature="0"
         style="opacity:0.5" /></g><g
       id="g17"><path
         d="M 60.213,8.344 C 59.921,8.179 59.551,8.179 59.254,8.346 59.098,8.435 58.969,8.566 58.885,8.72 l -6.045,10.811 -6.753,-1.347 -4.319,-7.831 2.269,-5.762 12.347,0.771 0.09,0.003 c 0.15,0 0.304,-0.036 0.445,-0.111 C 57.222,5.092 57.415,4.792 57.434,4.453 57.452,4.19 57.366,3.941 57.194,3.744 57.021,3.549 56.783,3.433 56.522,3.415 L 43.399,2.598 c -0.422,0 -0.765,0.231 -0.916,0.616 l -1.94,4.919 0,0 -4.467,2.361 0.961,1.824 -21.249,11.239 c 0,0 1.609,0.055 3.84,3.727 2.231,3.674 1.213,5.379 1.213,5.379 l 20.972,-11.323 0.961,1.82 3.892,-2.061 0.995,-0.396 -0.199,-0.255 5.693,1.136 c 0.064,0.014 0.132,0.021 0.195,0.021 0.354,0 0.68,-0.192 0.848,-0.498 L 60.59,9.672 c 0.26,-0.47 0.091,-1.067 -0.377,-1.328 z"
         id="path19"
         inkscape:connector-curvature="0"
         style="opacity:0.5" /></g></g><path
     inkscape:connector-curvature="0"
     d="M 54.423913,18.60438 C 52.642541,13.674038 48.071762,10.166102 42.7161,10.166102 c -1.233111,0 -2.423899,0.186315 -3.551204,0.532902 -3.051033,-5.130681 -8.504804,-8.546461 -14.724219,-8.546461 -9.435889,0 -17.1077193,7.861302 -17.3097103,17.63584 -3.45117,2.081522 -5.775034,5.970103 -5.775034,10.411618 0,6.635228 5.169059,12.020339 11.5423723,12.020339 h 38.474574 c 6.371388,0 11.542371,-5.395129 11.542371,-12.020339 0,-5.541376 -3.597371,-10.203265 -8.491337,-11.595621 z M 51.37865,38.213561 H 12.892534 c -4.2379743,0 -7.6891443,-3.588072 -7.6891443,-8.01356 0,-3.792418 2.535475,-6.975803 5.9366283,-7.805207 -0.10773,-0.719217 -0.165442,-1.458468 -0.165442,-2.211743 0,-7.745105 6.028966,-14.023728 13.466101,-14.023728 6.082831,0 11.223033,4.201108 12.89283,9.966864 1.479347,-1.224071 3.345364,-1.953305 5.382593,-1.953305 4.455355,0 8.127751,3.505932 8.604841,8.01356 h 0.05771 c 4.237972,0 7.689142,3.58807 7.689142,8.013559 0,4.417474 -3.44155,8.01356 -7.689142,8.01356 z"
     id="path3050"
     style="opacity:0.5" /><path
     style="opacity:0;fill:#ffffff;stroke:#ffffff;stroke-width:0.27118644"
     d="m 33.96875,10.875 c -0.06386,0.0054 -0.08687,0.02562 -0.125,0.09375 C 33.634603,11.342472 32.143867,11.362445 29.125,11 28.345053,10.90636 28.27233,10.9957 27.84375,12.1875 L 27.375,13.46875 28.21875,15.375 c 0.846304,1.916058 0.8463,1.922311 2.1875,2.1875 l 1.34375,0.28125 1.34375,-2.6875 c 1.279733,-2.550167 2.15625,-3.409015 2.15625,-2.125 0,0.573668 -2.511917,5.818789 -2.90625,6.0625 C 32.218452,19.17119 31.614357,19.093441 31,18.9375 c -0.97822,-0.248298 -1.269651,-0.207237 -2.25,0.34375 -0.93382,0.524836 -1.145455,0.570849 -1.34375,0.25 -0.189108,-0.305982 -1.120896,0.156923 -4.5625,2.25 -2.379395,1.447075 -4.40851,2.625 -4.5,2.625 -0.09149,0 -0.1852,-0.339831 -0.1875,-0.75 -0.0023,-0.41017 -0.110358,-0.904161 -0.25,-1.125 -0.16536,-0.261517 -0.197858,0.116288 -0.09375,1.125 0.142062,1.376446 0.298086,1.729926 1.46875,3 0.72446,0.78598 2.381677,2.667791 3.6875,4.1875 l 2.375,2.75 1.4375,0.03125 1.4375,0 0,2.1875 0,2.15625 12.40625,0 12.40625,0 1.34375,-0.65625 c 1.669982,-0.777646 3.45452,-2.74489 4.03125,-4.4375 0.486763,-1.428575 0.55564,-3.530932 0.15625,-4.96875 -0.640491,-2.3058 -3.31587,-4.949061 -5.375,-5.28125 -1.621339,-0.261563 -2.21875,-0.594681 -2.21875,-1.28125 0,-1.016184 -1.301828,-3.36433 -2.59375,-4.65625 -2.661041,-2.66104 -7.152637,-3.076262 -10.15625,-0.9375 -0.44619,0.317715 -0.86454,0.55356 -0.90625,0.5 -0.04171,-0.05356 -0.444441,-0.935198 -0.90625,-1.9375 -0.941102,-2.04255 -1.990456,-3.47523 -2.4375,-3.4375 z"
     id="path3013"
     inkscape:connector-curvature="0" /><path
     style="opacity:0;fill:#ffffff;stroke:#ffffff;stroke-width:0.27118644"
     d="M 10.219804,37.503836 C 6.6064005,36.227567 4.4346113,31.345728 5.8329526,27.642889 6.56124,25.714367 8.0082978,24.023891 9.637565,23.198279 l 1.278434,-0.647832 -0.103526,1.404438 c -0.192484,2.611239 1.318511,4.371297 3.7216,4.335045 1.475466,-0.02226 1.677382,0.08716 0.776083,0.420576 -0.539501,0.199575 -0.432087,0.382848 1.491526,2.544906 l 2.072894,2.329844 0,2.192118 0,2.192118 -3.728813,-0.02141 c -2.637688,-0.01514 -4.079123,-0.14514 -4.925959,-0.444246 z"
     id="path3784"
     inkscape:connector-curvature="0" /><path
     style="opacity:0;fill:#ffffff;stroke:#ffffff;stroke-width:0.27118644"
     d="m 11.193781,20.921445 c -0.16899,-0.844945 0.152298,-3.35576 0.646672,-5.053648 1.274224,-4.376222 5.424725,-8.220169 9.988565,-9.250815 1.680798,-0.379572 2.337907,-0.402676 4.152836,-0.146012 2.389469,0.337915 4.942934,1.421861 6.452044,2.738892 l 0.949153,0.828345 -2.970345,-0.06826 -2.970344,-0.06826 -0.450783,1.206827 c -0.283796,0.759774 -0.790791,1.440335 -1.368639,1.837183 -0.577968,0.396931 -0.888877,0.81433 -0.839599,1.127174 0.06021,0.382233 -0.895149,1.077141 -4.142197,3.012958 -2.321249,1.383876 -4.295632,2.63778 -4.387517,2.786453 -0.09189,0.148673 0.03312,0.382343 0.27779,0.519267 0.971861,0.543881 0.37389,0.718681 -0.643841,0.18821 -1.316831,-0.686371 -2.583509,-0.535248 -3.751536,0.447582 l -0.7884,0.663395 -0.153859,-0.769299 0,0 z"
     id="path3786"
     inkscape:connector-curvature="0" /><text
     xml:space="preserve"
     style="font-size:44.38300705px;font-style:normal;font-variant:normal;font-weight:200;font-stretch:normal;line-height:125%;letter-spacing:0px;word-spacing:0px;fill:#000000;fill-opacity:1;stroke:none;font-family:Roboto Th;-inkscape-font-specification:Roboto Th Ultra-Light"
     x="34.972504"
     y="53.370281"
     id="text2994"
     sodipodi:linespacing="125%"><tspan
       sodipodi:role="line"
       id="tspan2996"
       x="34.972504"
       y="53.370281">REALM</tspan></text>
</svg>