<?xml version="1.0" encoding="UTF-8" standalone="no"?>
<!-- Generator: Adobe Illustrator 15.0.0, SVG Export Plug-In . SVG Version: 6.00 Build 0)  -->

<svg
   xmlns:dc="http://purl.org/dc/elements/1.1/"
   xmlns:cc="http://creativecommons.org/ns#"
   xmlns:rdf="http://www.w3.org/1999/02/22-rdf-syntax-ns#"
   xmlns:svg="http://www.w3.org/2000/svg"
   xmlns="http://www.w3.org/2000/svg"
   xmlns:sodipodi="http://sodipodi.sourceforge.net/DTD/sodipodi-0.dtd"
   xmlns:inkscape="http://www.inkscape.org/namespaces/inkscape"
   version="1.1"
   id="Layer_1"
   x="0px"
   y="0px"
   width="64px"
   height="64px"
   viewBox="0 0 64 64"
   enable-background="new 0 0 64 64"
   xml:space="preserve"
   inkscape:version="0.48.4 r9939"
   sodipodi:docname="REALMIconBackground.svg"><metadata
     id="metadata25"><rdf:RDF><cc:Work
         rdf:about=""><dc:format>image/svg+xml</dc:format><dc:type
           rdf:resource="http://purl.org/dc/dcmitype/StillImage" /><dc:title></dc:title></cc:Work></rdf:RDF></metadata><defs
     id="defs23"><filter
       inkscape:collect="always"
       id="filter4034"><feGaussianBlur
         inkscape:collect="always"
         stdDeviation="0.67272535"
         id="feGaussianBlur4036" /></filter><filter
       inkscape:collect="always"
       id="filter4038"
       x="-0.24581926"
       width="1.4916385"
       y="-0.24581926"
       height="1.4916385"><feGaussianBlur
         inkscape:collect="always"
         stdDeviation="0.67272535"
         id="feGaussianBlur4040" /></filter><filter
       inkscape:collect="always"
       id="filter4042"><feGaussianBlur
         inkscape:collect="always"
         stdDeviation="0.67272535"
         id="feGaussianBlur4044" /></filter><filter
       inkscape:collect="always"
       id="filter4046"><feGaussianBlur
         inkscape:collect="always"
         stdDeviation="0.30488134"
         id="feGaussianBlur4048" /></filter><filter
       inkscape:collect="always"
       id="filter4050"><feGaussianBlur
         inkscape:collect="always"
         stdDeviation="0.67272535"
         id="feGaussianBlur4052" /></filter></defs><sodipodi:namedview
     pagecolor="#ffffff"
     bordercolor="#666666"
     borderopacity="1"
     objecttolerance="10"
     gridtolerance="10"
     guidetolerance="10"
     inkscape:pageopacity="0"
     inkscape:pageshadow="2"
     inkscape:window-width="1920"
     inkscape:window-height="1058"
     id="namedview21"
     showgrid="false"
     inkscape:zoom="7.375"
     inkscape:cx="30.073803"
     inkscape:cy="22.302688"
     inkscape:window-x="-8"
     inkscape:window-y="-8"
     inkscape:window-maximized="1"
     inkscape:current-layer="Layer_1" /><g
     id="g3"
     transform="matrix(0.42540783,0,0,0.48281487,9.4187477,17.599984)"><g
       id="g5"><path
         d="m 20.378,34.999 c 0,0 -0.05,2.061 -2.51,4.513 -2.46,2.454 -4.833,2.577 -4.833,2.577 L 23.17,52.226 h -0.841 v 9.176 H 43.954 V 52.226 H 37.608 L 20.378,34.999 z m 21.867,24.69 H 24.04 v -5.751 h 18.206 v 5.751 z"
         id="path7"
         inkscape:connector-curvature="0"
         style="opacity:0.25000000000000000;filter:url(#filter4050)" /></g><g
       id="g9"><circle
         cx="11.572"
         cy="32.432999"
         r="3.2839999"
         id="circle11"
         d="m 14.855999,32.432999 c 0,1.813703 -1.470296,3.284 -3.283999,3.284 -1.8137035,0 -3.2840004,-1.470297 -3.2840004,-3.284 0,-1.813703 1.4702969,-3.284 3.2840004,-3.284 1.813703,0 3.283999,1.470297 3.283999,3.284 z"
         sodipodi:cx="11.572"
         sodipodi:cy="32.432999"
         sodipodi:rx="3.2839999"
         sodipodi:ry="3.2839999"
         style="opacity:0.25000000000000000;filter:url(#filter4038)" /></g><g
       id="g13"><path
         d="m 19.856,32.433 c 0,-0.285 -0.014,-0.566 -0.042,-0.844 -0.432,-4.243 -3.974,-7.44 -8.243,-7.44 -4.569,0 -8.284,3.715 -8.284,8.284 0,4.567 3.715,8.283 8.284,8.283 4.571,0 8.285,-3.716 8.285,-8.283 z m -8.284,6.214 c -3.426,0 -6.213,-2.787 -6.213,-6.215 0,-3.428 2.787,-6.215 6.213,-6.215 3.428,0 6.215,2.787 6.215,6.215 0,3.428 -2.787,6.215 -6.215,6.215 z"
         id="path15"
         inkscape:connector-curvature="0"
         style="opacity:0.25000000000000000;filter:url(#filter4042)" /></g><g
       id="g17"><path
         d="M 60.213,8.344 C 59.921,8.179 59.551,8.179 59.254,8.346 59.098,8.435 58.969,8.566 58.885,8.72 l -6.045,10.811 -6.753,-1.347 -4.319,-7.831 2.269,-5.762 12.347,0.771 0.09,0.003 c 0.15,0 0.304,-0.036 0.445,-0.111 C 57.222,5.092 57.415,4.792 57.434,4.453 57.452,4.19 57.366,3.941 57.194,3.744 57.021,3.549 56.783,3.433 56.522,3.415 L 43.399,2.598 c -0.422,0 -0.765,0.231 -0.916,0.616 l -1.94,4.919 0,0 -4.467,2.361 0.961,1.824 -21.249,11.239 c 0,0 1.609,0.055 3.84,3.727 2.231,3.674 1.213,5.379 1.213,5.379 l 20.972,-11.323 0.961,1.82 3.892,-2.061 0.995,-0.396 -0.199,-0.255 5.693,1.136 c 0.064,0.014 0.132,0.021 0.195,0.021 0.354,0 0.68,-0.192 0.848,-0.498 L 60.59,9.672 c 0.26,-0.47 0.091,-1.067 -0.377,-1.328 z"
         id="path19"
         inkscape:connector-curvature="0"
         style="opacity:0.25000000000000000;filter:url(#filter4034)" /></g></g><path
     inkscape:connector-curvature="0"
     d="M 54.423913,27.60438 C 52.642541,22.674038 48.071762,19.166102 42.7161,19.166102 c -1.233111,0 -2.423899,0.186315 -3.551204,0.532902 -3.051033,-5.130681 -8.504804,-8.546461 -14.724219,-8.546461 -9.435889,0 -17.1077193,7.861302 -17.3097103,17.63584 -3.45117,2.081522 -5.775034,5.970103 -5.775034,10.411618 0,6.635228 5.169059,12.020339 11.5423723,12.020339 h 38.474574 c 6.371388,0 11.542371,-5.395129 11.542371,-12.020339 0,-5.541376 -3.597371,-10.203265 -8.491337,-11.595621 z M 51.37865,47.213561 H 12.892534 c -4.2379743,0 -7.6891443,-3.588072 -7.6891443,-8.01356 0,-3.792418 2.535475,-6.975803 5.9366283,-7.805207 -0.10773,-0.719217 -0.165442,-1.458468 -0.165442,-2.211743 0,-7.745105 6.028966,-14.023728 13.466101,-14.023728 6.082831,0 11.223033,4.201108 12.89283,9.966864 1.479347,-1.224071 3.345364,-1.953305 5.382593,-1.953305 4.455355,0 8.127751,3.505932 8.604841,8.01356 h 0.05771 c 4.237972,0 7.689142,3.58807 7.689142,8.013559 0,4.417474 -3.44155,8.01356 -7.689142,8.01356 z"
     id="path3050"
     style="opacity:0.25000000000000000;filter:url(#filter4046)" /><path
     style="fill:#ffffff;stroke:#ffffff;stroke-width:0.27118643999999997;opacity:0"
     d="M 33.96875 19.875 C 33.904887 19.88039 33.881878 19.900619 33.84375 19.96875 C 33.634603 20.342472 32.143867 20.362445 29.125 20 C 28.345053 19.906359 28.27233 19.995658 27.84375 21.1875 L 27.375 22.46875 L 28.21875 24.375 C 29.065054 26.291058 29.06505 26.297311 30.40625 26.5625 L 31.75 26.84375 L 33.09375 24.15625 C 34.373483 21.606083 35.25 20.747235 35.25 22.03125 C 35.25 22.604918 32.738083 27.850039 32.34375 28.09375 C 32.218452 28.171188 31.614357 28.093441 31 27.9375 C 30.02178 27.689202 29.730349 27.730263 28.75 28.28125 C 27.81618 28.806086 27.604545 28.852099 27.40625 28.53125 C 27.217142 28.225268 26.285354 28.688173 22.84375 30.78125 C 20.464355 32.228325 18.43524 33.40625 18.34375 33.40625 C 18.252263 33.40625 18.15855 33.066419 18.15625 32.65625 C 18.153966 32.24608 18.045892 31.752089 17.90625 31.53125 C 17.74089 31.269733 17.708392 31.647538 17.8125 32.65625 C 17.954562 34.032696 18.110586 34.386176 19.28125 35.65625 C 20.00571 36.44223 21.662927 38.324041 22.96875 39.84375 L 25.34375 42.59375 L 26.78125 42.625 L 28.21875 42.625 L 28.21875 44.8125 L 28.21875 46.96875 L 40.625 46.96875 L 53.03125 46.96875 L 54.375 46.3125 C 56.044982 45.534854 57.82952 43.56761 58.40625 41.875 C 58.893013 40.446425 58.96189 38.344068 58.5625 36.90625 C 57.922009 34.60045 55.24663 31.957189 53.1875 31.625 C 51.566161 31.363437 50.96875 31.030319 50.96875 30.34375 C 50.96875 29.327566 49.666922 26.97942 48.375 25.6875 C 45.713959 23.02646 41.222363 22.611238 38.21875 24.75 C 37.77256 25.067715 37.35421 25.30356 37.3125 25.25 C 37.270794 25.19644 36.868059 24.314802 36.40625 23.3125 C 35.465148 21.26995 34.415794 19.83727 33.96875 19.875 z "
     id="path3013" /><path
     style="opacity:0;fill:#ffffff;stroke:#ffffff;stroke-width:0.27118644"
     d="M 10.219804,46.503836 C 6.6064005,45.227567 4.4346113,40.345728 5.8329526,36.642889 6.56124,34.714367 8.0082978,33.023891 9.637565,32.198279 l 1.278434,-0.647832 -0.103526,1.404438 c -0.192484,2.611239 1.318511,4.371297 3.7216,4.335045 1.475466,-0.02226 1.677382,0.08716 0.776083,0.420576 -0.539501,0.199575 -0.432087,0.382848 1.491526,2.544906 l 2.072894,2.329844 0,2.192118 0,2.192118 -3.728813,-0.02141 c -2.637688,-0.01514 -4.079123,-0.14514 -4.925959,-0.444246 z"
     id="path3784"
     inkscape:connector-curvature="0" /><path
     style="opacity:0;fill:#ffffff;stroke:#ffffff;stroke-width:0.27118644"
     d="m 11.193781,29.921445 c -0.16899,-0.844945 0.152298,-3.35576 0.646672,-5.053648 1.274224,-4.376222 5.424725,-8.220169 9.988565,-9.250815 1.680798,-0.379572 2.337907,-0.402676 4.152836,-0.146012 2.389469,0.337915 4.942934,1.421861 6.452044,2.738892 l 0.949153,0.828345 -2.970345,-0.06826 -2.970344,-0.06826 -0.450783,1.206827 c -0.283796,0.759774 -0.790791,1.440335 -1.368639,1.837183 -0.577968,0.396931 -0.888877,0.81433 -0.839599,1.127174 0.06021,0.382233 -0.895149,1.077141 -4.142197,3.012958 -2.321249,1.383876 -4.295632,2.63778 -4.387517,2.786453 -0.09189,0.148673 0.03312,0.382343 0.27779,0.519267 0.971861,0.543881 0.37389,0.718681 -0.643841,0.18821 -1.316831,-0.686371 -2.583509,-0.535248 -3.751536,0.447582 l -0.7884,0.663395 -0.153859,-0.769299 0,0 z"
     id="path3786"
     inkscape:connector-curvature="0" /></svg>